<svg width="21" height="17" viewBox="0 0 21 17" fill="none" xmlns="http://www.w3.org/2000/svg">
<g id="eye">
<path id="Vector" d="M2.35933 11.4874C1.56802 10.4792 1.17236 9.97514 1.17236 8.4783C1.17236 6.98145 1.56802 6.47739 2.35933 5.46921C3.93936 3.45616 6.58922 1.17395 10.4827 1.17395C14.3762 1.17395 17.026 3.45616 18.6061 5.46921C19.3974 6.47739 19.7931 6.98145 19.7931 8.4783C19.7931 9.97514 19.3974 10.4792 18.6061 11.4874C17.026 13.5004 14.3762 15.7826 10.4827 15.7826C6.58922 15.7826 3.93936 13.5004 2.35933 11.4874Z" stroke="#F5FEF9" stroke-width="2"/>
<path id="Vector_2" d="M13.2758 8.47827C13.2758 9.99109 12.0253 11.2174 10.4827 11.2174C8.94005 11.2174 7.68958 9.99109 7.68958 8.47827C7.68958 6.96544 8.94005 5.73914 10.4827 5.73914C12.0253 5.73914 13.2758 6.96544 13.2758 8.47827Z" stroke="#F5FEF9" stroke-width="2"/>
</g>
</svg>
