<svg width="22" height="24" viewBox="0 0 22 24" fill="none" xmlns="http://www.w3.org/2000/svg">
<g id="Verified">
<path id="Vector" fill-rule="evenodd" clip-rule="evenodd" d="M7.43562 2.75658C8.45899 -0.829342 13.5409 -0.829342 14.5643 2.75658C14.8911 3.90174 16.0676 4.581 17.2228 4.29145C20.84 3.38476 23.381 7.78586 20.7872 10.4651C19.9588 11.3207 19.9588 12.6792 20.7872 13.5348C23.381 16.2141 20.84 20.6152 17.2228 19.7085C16.0676 19.4189 14.8911 20.0982 14.5643 21.2433C13.5409 24.8293 8.45899 24.8293 7.43562 21.2433C7.1088 20.0982 5.93229 19.4189 4.77714 19.7085C1.15995 20.6152 -1.38103 16.2141 1.21279 13.5348C2.04112 12.6792 2.04112 11.3207 1.21279 10.4651C-1.38102 7.78586 1.15995 3.38476 4.77714 4.29145C5.93229 4.581 7.1088 3.90174 7.43562 2.75658ZM15.5762 9.48011C15.8413 9.1619 15.7983 8.68898 15.4801 8.4238C15.1619 8.15863 14.689 8.20162 14.4238 8.51983L10.9603 12.6761C10.5895 13.1211 10.3618 13.3915 10.1742 13.5609C10.0872 13.6394 10.0356 13.6707 10.0109 13.6827C10.0058 13.6851 10.0023 13.6866 10 13.6874C9.99774 13.6866 9.99416 13.6851 9.98913 13.6827C9.9644 13.6707 9.9128 13.6394 9.8258 13.5609C9.63822 13.3915 9.41052 13.1211 9.03972 12.6761L7.57617 10.9198C7.31099 10.6016 6.83807 10.5586 6.51986 10.8238C6.20165 11.089 6.15866 11.5619 6.42383 11.8801L7.91933 13.6747C8.2478 14.069 8.54391 14.4244 8.82051 14.6741C9.12145 14.9459 9.50051 15.1879 10 15.1879C10.4995 15.1879 10.8786 14.9459 11.1795 14.6741C11.4561 14.4244 11.7522 14.069 12.0807 13.6747L15.5762 9.48011Z" fill="#FFCA41"/>
</g>
</svg>
